<svg xmlns="http://www.w3.org/2000/svg" xmlns:xlink="http://www.w3.org/1999/xlink" version="1.1" x="0px" y="0px" viewBox="0 0 100 125" style="enable-background:new 0 0 100 100;" xml:space="preserve"><g><path d="M82.393,0l-13.08,0.231c0,0-3.226,38.687-19.585,37.339C35.33,36.385,32.842,8.633,30.899,1.896   c-0.4-1.665-13.055-0.21-13.055-0.21s-0.584,60.814,0.083,60.379c0.103,1.437,9.413,0.242,9,0.487   C30.08,64.836,32.125,100,49.647,100c17.523,0,22.938-36.533,22.938-36.533h9.741C82.326,63.467,82.037,2.436,82.393,0z    M78.057,58.967c-0.162-0.014-6.578,0.826-6.578,0.826s-4.045,34.939-21.516,34.925c-18.076,0.759-19.814-34.962-19.814-34.962   l-9.174-0.133c0.305-2.817-0.164-55.401,0.382-54.306c-0.873-0.979,6.604-0.312,6.604-0.312s3.456,14.928,4.461,18.963   c2.532,10.162,9.8,17.908,17.496,17.908c7.53,0,14.618-9.889,16.092-12.573c1.475-2.686,6.575-26.317,6.575-26.317   s3.712,0.479,6.771,0.339C79.355,3.325,78.691,58.303,78.057,58.967z M57.904,76.952c0.061,0.117-7.979,10.661-8.077,10.802   c0.045,0.026-8.304-10.519-8.236-10.896C41.655,77.175,57.831,76.866,57.904,76.952z"/></g><text x="0" y="115" fill="#000000" font-size="5px" font-weight="bold" font-family="'Helvetica Neue', Helvetica, Arial-Unicode, Arial, Sans-serif">Created by b farias</text><text x="0" y="120" fill="#000000" font-size="5px" font-weight="bold" font-family="'Helvetica Neue', Helvetica, Arial-Unicode, Arial, Sans-serif">from the Noun Project</text></svg>